<svg xmlns="http://www.w3.org/2000/svg" xmlns:xlink="http://www.w3.org/1999/xlink" width="500" zoomAndPan="magnify" viewBox="0 0 375 374.999991" height="500" preserveAspectRatio="xMidYMid meet" version="1.0"><defs><clipPath id="f5f74dcb08"><path d="M 6.375 4.203125 L 372.96875 4.203125 L 372.96875 370.796875 L 6.375 370.796875 Z M 6.375 4.203125 " clip-rule="nonzero"/></clipPath><clipPath id="4fee777e2c"><path d="M 189.671875 4.203125 C 88.441406 4.203125 6.375 86.269531 6.375 187.5 C 6.375 288.730469 88.441406 370.796875 189.671875 370.796875 C 290.90625 370.796875 372.96875 288.730469 372.96875 187.5 C 372.96875 86.269531 290.90625 4.203125 189.671875 4.203125 Z M 189.671875 4.203125 " clip-rule="nonzero"/></clipPath><clipPath id="cca07e2080"><path d="M 71.765625 71.765625 L 303.515625 71.765625 L 303.515625 224 L 71.765625 224 Z M 71.765625 71.765625 " clip-rule="nonzero"/></clipPath><clipPath id="98b1217e7f"><path d="M 131 143 L 244 143 L 244 303.515625 L 131 303.515625 Z M 131 143 " clip-rule="nonzero"/></clipPath><clipPath id="2452cfb51a"><path d="M 112.5 187.5 L 262.5 187.5 L 262.5 318.75 L 112.5 318.75 Z M 112.5 187.5 " clip-rule="nonzero"/></clipPath><clipPath id="55ccda75fa"><path d="M 132.777344 141.59375 L 246.570312 141.59375 L 246.570312 284.484375 L 132.777344 284.484375 Z M 132.777344 141.59375 " clip-rule="nonzero"/></clipPath><clipPath id="94c61180bf"><path d="M 102.75 165.839844 L 206.613281 165.839844 L 206.613281 269.289062 L 102.75 269.289062 Z M 102.75 165.839844 " clip-rule="nonzero"/></clipPath><clipPath id="a0d447a905"><path d="M 232 203 L 259.5 203 L 259.5 294.59375 L 232 294.59375 Z M 232 203 " clip-rule="nonzero"/></clipPath><clipPath id="567bbb825e"><path d="M 109.5 171 L 234 171 L 234 294.59375 L 109.5 294.59375 Z M 109.5 171 " clip-rule="nonzero"/></clipPath><clipPath id="4e7383ee35"><path d="M 138 144.59375 L 247 144.59375 L 247 279 L 138 279 Z M 138 144.59375 " clip-rule="nonzero"/></clipPath></defs><rect x="-37.5" width="450" fill="#ffffff" y="-37.499999" height="449.999989" fill-opacity="1"/><rect x="-37.5" width="450" fill="#ffffff" y="-37.499999" height="449.999989" fill-opacity="1"/><g clip-path="url(#f5f74dcb08)"><g clip-path="url(#4fee777e2c)"><path fill="#1f73c8" d="M 6.375 4.203125 L 372.96875 4.203125 L 372.96875 370.796875 L 6.375 370.796875 Z M 6.375 4.203125 " fill-opacity="1" fill-rule="nonzero"/></g></g><g clip-path="url(#cca07e2080)"><path fill="#ffffff" d="M 255.335938 223.410156 C 281.78125 223.410156 303.222656 201.96875 303.222656 175.523438 C 303.222656 156.132812 291.679688 139.472656 275.101562 131.941406 C 273.1875 98.402344 245.460938 71.765625 211.441406 71.765625 C 184.949219 71.765625 162.230469 87.90625 152.566406 110.882812 C 148.691406 108.847656 144.289062 107.683594 139.609375 107.683594 C 124.179688 107.683594 111.671875 120.191406 111.671875 135.617188 C 111.671875 135.683594 111.679688 135.75 111.6875 135.816406 C 89.308594 137.832031 71.765625 156.613281 71.765625 179.515625 C 71.765625 203.757812 91.421875 223.410156 115.664062 223.410156 Z M 255.335938 223.410156 " fill-opacity="1" fill-rule="nonzero"/></g><g clip-path="url(#98b1217e7f)"><path fill="#ffffff" d="M 240.453125 185.339844 L 201.621094 146.511719 C 200.144531 144.714844 197.953125 143.597656 195.476562 143.597656 L 139.609375 143.597656 C 135.21875 143.597656 131.625 147.191406 131.625 151.578125 L 131.625 295.242188 C 131.625 299.632812 135.21875 303.222656 139.609375 303.222656 L 235.382812 303.222656 C 239.773438 303.222656 243.363281 299.632812 243.363281 295.242188 L 243.363281 191.488281 C 243.363281 189.011719 242.246094 186.816406 240.453125 185.339844 Z M 240.453125 185.339844 " fill-opacity="1" fill-rule="nonzero"/></g><path fill="#000000" d="M 240.453125 185.339844 C 239.054688 184.183594 237.300781 183.503906 235.382812 183.503906 L 211.441406 183.503906 C 207.050781 183.503906 203.457031 179.914062 203.457031 175.523438 L 203.457031 151.578125 C 203.457031 149.664062 202.78125 147.910156 201.621094 146.511719 Z M 240.453125 185.339844 " fill-opacity="1" fill-rule="nonzero"/><path fill="#293b6d" d="M 223.410156 211.441406 L 151.578125 211.441406 C 149.375 211.441406 147.589844 209.65625 147.589844 207.449219 C 147.589844 205.242188 149.375 203.457031 151.578125 203.457031 L 223.410156 203.457031 C 225.617188 203.457031 227.402344 205.242188 227.402344 207.449219 C 227.402344 209.65625 225.617188 211.441406 223.410156 211.441406 Z M 223.410156 211.441406 " fill-opacity="1" fill-rule="nonzero"/><path fill="#293b6d" d="M 223.410156 235.382812 L 151.578125 235.382812 C 149.375 235.382812 147.589844 233.597656 147.589844 231.394531 C 147.589844 229.1875 149.375 227.402344 151.578125 227.402344 L 223.410156 227.402344 C 225.617188 227.402344 227.402344 229.1875 227.402344 231.394531 C 227.402344 233.597656 225.617188 235.382812 223.410156 235.382812 Z M 223.410156 235.382812 " fill-opacity="1" fill-rule="nonzero"/><path fill="#293b6d" d="M 223.410156 259.328125 L 151.578125 259.328125 C 149.375 259.328125 147.589844 257.542969 147.589844 255.335938 C 147.589844 253.128906 149.375 251.347656 151.578125 251.347656 L 223.410156 251.347656 C 225.617188 251.347656 227.402344 253.128906 227.402344 255.335938 C 227.402344 257.542969 225.617188 259.328125 223.410156 259.328125 Z M 223.410156 259.328125 " fill-opacity="1" fill-rule="nonzero"/><path fill="#293b6d" d="M 195.476562 283.269531 L 151.578125 283.269531 C 149.375 283.269531 147.589844 281.488281 147.589844 279.28125 C 147.589844 277.074219 149.375 275.289062 151.578125 275.289062 L 195.476562 275.289062 C 197.683594 275.289062 199.46875 277.074219 199.46875 279.28125 C 199.46875 281.488281 197.683594 283.269531 195.476562 283.269531 Z M 195.476562 283.269531 " fill-opacity="1" fill-rule="nonzero"/><g clip-path="url(#2452cfb51a)"><path fill="#1f73c8" d="M 112.5 187.5 L 262.71875 187.5 L 262.71875 318.75 L 112.5 318.75 Z M 112.5 187.5 " fill-opacity="1" fill-rule="nonzero"/></g><g clip-path="url(#55ccda75fa)"><path fill="#1f73c8" d="M 132.777344 141.59375 L 246.570312 141.59375 L 246.570312 284.28125 L 132.777344 284.28125 Z M 132.777344 141.59375 " fill-opacity="1" fill-rule="nonzero"/></g><g clip-path="url(#94c61180bf)"><path fill="#1f73c8" d="M 102.75 165.839844 L 206.601562 165.839844 L 206.601562 269.289062 L 102.75 269.289062 Z M 102.75 165.839844 " fill-opacity="1" fill-rule="nonzero"/></g><g clip-path="url(#a0d447a905)"><path fill="#ffffff" d="M 259.5 203.523438 L 251.464844 203.523438 L 251.464844 281.203125 C 251.464844 282.675781 250.261719 283.878906 248.785156 283.878906 L 232.976562 283.878906 C 234.242188 289.992188 239.652344 294.59375 246.105469 294.59375 C 253.503906 294.59375 259.5 288.597656 259.5 281.203125 L 259.5 203.523438 " fill-opacity="1" fill-rule="nonzero"/></g><g clip-path="url(#567bbb825e)"><path fill="#ffffff" d="M 114.855469 270.488281 C 114.855469 269.011719 116.058594 267.808594 117.535156 267.808594 C 119.011719 267.808594 120.214844 269.011719 120.214844 270.488281 L 120.214844 281.203125 C 120.214844 282.675781 121.417969 283.878906 122.894531 283.878906 L 133.605469 283.878906 C 135.082031 283.878906 136.285156 285.082031 136.285156 286.558594 C 136.285156 288.035156 135.082031 289.238281 133.605469 289.238281 L 122.894531 289.238281 C 118.457031 289.238281 114.855469 285.636719 114.855469 281.203125 Z M 203.25 208.878906 L 213.964844 208.878906 C 218.402344 208.878906 222 212.480469 222 216.917969 L 222 227.628906 C 222 229.105469 220.796875 230.308594 219.320312 230.308594 C 217.847656 230.308594 216.644531 229.105469 216.644531 227.628906 L 216.644531 216.917969 C 216.644531 215.441406 215.441406 214.238281 213.964844 214.238281 L 203.25 214.238281 C 201.773438 214.238281 200.570312 213.035156 200.570312 211.558594 C 200.570312 210.082031 201.773438 208.878906 203.25 208.878906 Z M 109.5 286.558594 C 109.5 290.972656 113.121094 294.59375 117.535156 294.59375 L 233.007812 294.59375 C 229.523438 291.195312 227.355469 286.453125 227.355469 281.203125 L 227.355469 211.558594 C 227.355469 207.144531 223.746094 203.523438 219.320312 203.523438 L 165.75 203.523438 C 161.324219 203.523438 157.714844 199.902344 157.714844 195.488281 L 157.714844 179.417969 C 157.714844 175 154.105469 171.378906 149.679688 171.378906 L 117.535156 171.378906 C 113.121094 171.378906 109.5 175 109.5 179.417969 L 109.5 286.558594 " fill-opacity="1" fill-rule="nonzero"/></g><g clip-path="url(#4e7383ee35)"><path fill="#ffffff" d="M 232.714844 187.453125 C 234.191406 187.453125 235.394531 188.65625 235.394531 190.128906 C 235.394531 191.605469 234.191406 192.808594 232.714844 192.808594 L 171.105469 192.808594 C 169.632812 192.808594 168.429688 191.605469 168.429688 190.128906 C 168.429688 188.65625 169.632812 187.453125 171.105469 187.453125 Z M 213.964844 179.417969 C 213.964844 180.890625 212.761719 182.09375 211.285156 182.09375 L 171.105469 182.09375 C 169.632812 182.09375 168.429688 180.890625 168.429688 179.417969 C 168.429688 177.941406 169.632812 176.738281 171.105469 176.738281 L 211.285156 176.738281 C 212.761719 176.738281 213.964844 177.941406 213.964844 179.417969 Z M 211.285156 171.378906 L 171.105469 171.378906 C 169.632812 171.378906 168.429688 170.175781 168.429688 168.703125 C 168.429688 167.226562 169.632812 166.023438 171.105469 166.023438 L 211.285156 166.023438 C 212.761719 166.023438 213.964844 167.226562 213.964844 168.703125 C 213.964844 170.175781 212.761719 171.378906 211.285156 171.378906 Z M 152.355469 160.667969 C 150.882812 160.667969 149.679688 159.464844 149.679688 157.988281 C 149.679688 156.511719 150.882812 155.308594 152.355469 155.308594 L 211.285156 155.308594 C 212.761719 155.308594 213.964844 156.511719 213.964844 157.988281 C 213.964844 159.464844 212.761719 160.667969 211.285156 160.667969 Z M 138.964844 144.59375 L 138.964844 166.023438 L 149.679688 166.023438 C 157.074219 166.023438 163.070312 172.019531 163.070312 179.417969 L 163.070312 195.488281 C 163.070312 196.964844 164.273438 198.167969 165.75 198.167969 L 219.320312 198.167969 C 226.71875 198.167969 232.714844 204.160156 232.714844 211.558594 L 232.714844 278.523438 L 246.105469 278.523438 L 246.105469 174.058594 L 222 174.058594 C 220.523438 174.058594 219.320312 172.855469 219.320312 171.378906 L 219.320312 144.59375 L 138.964844 144.59375 " fill-opacity="1" fill-rule="nonzero"/></g><path fill="#ffffff" d="M 224.679688 168.703125 L 242.726562 168.703125 L 224.679688 148.851562 Z M 224.679688 168.703125 " fill-opacity="1" fill-rule="nonzero"/></svg>